====== Jumper.2008.BRRip.H264.AAC-MS ==========

      Format : MPEG-4
      Format profile : Base Media / Version 2
      Codec ID : mp42
      File size : 1.51 GiB
      Duration : 1h 28mn
      Overall bit rate : 2 443 Kbps

Video #1
      Format : AVC
      Format/Info : Advanced Video Codec
      Format profile : High@L3.1
      Format settings, CABAC : Yes
      Format settings, ReFrames : 3 frames
      Codec ID : avc1
      Codec ID/Info : Advanced Video Coding
      Duration : 1h 28mn
      Bit rate mode : Variable
      Bit rate : 1 800 Kbps
      Width : 1 280 pixels
      Height : 544 pixels
      Display aspect ratio : 2.35
      Frame rate mode : Variable
      Frame rate : 23.976 fps
      Minimum frame rate : 12.276 fps
      Maximum frame rate : 25.144 fps
      Resolution : 24 bits
      Colorimetry : 4:2:0
      Scan type : Progressive
      Bits/(Pixel*Frame) : 0.108
      Stream size : 1.11 GiB (74%)
      Writing library : x264 core 65

Audio #2
      Format : AC-3
      Format/Info : Audio Coding 3
      Codec ID : ac-3
      Duration : 1h 28mn
      Bit rate mode : Constant
      Bit rate : 640 Kbps
      Channel(s) : 6 channels
      Channel positions : Front: L C R, Surround: L R, LFE
      Sampling rate : 48.0 KHz
      Resolution : 16 bits
      Stream size : 405 MiB (26%)
      Language : English

Use KM player or Windows media Classic

Pls be patience I only Upload from 8pm to 5am full speed up to 300kbps... This is my first Upload so i need some comments...Thanx and Enjoy!!!